<?xml version="1.0" encoding="utf-8"?>
<svg xmlns="http://www.w3.org/2000/svg" viewBox="104.536 171.7142 499.9998 60" width="499.9998px" height="60px" xmlns:bx="https://boxy-svg.com">
  <defs>
    <linearGradient id="color-0-0" href="#color-0" gradientUnits="userSpaceOnUse" x1="31.739" y1="0.002" x2="31.739" y2="63.479"/>
    <linearGradient bx:pinned="true" id="color-0">
      <stop style="stop-color: rgb(255, 197, 30);" offset="0"/>
      <stop style="stop-color: #f37335;" offset="1"/>
    </linearGradient>
    <linearGradient id="color-0-1" href="#color-0" gradientUnits="userSpaceOnUse" x1="109.864" y1="0.002" x2="109.864" y2="63.479"/>
    <linearGradient id="color-0-2" href="#color-0" gradientUnits="userSpaceOnUse" x1="187.989" y1="0.002" x2="187.989" y2="63.479"/>
    <linearGradient id="color-0-3" href="#color-0" gradientUnits="userSpaceOnUse" x1="266.114" y1="0.002" x2="266.114" y2="63.479"/>
    <linearGradient id="color-0-5" href="#color-0" gradientUnits="userSpaceOnUse" x1="422.363" y1="0.002" x2="422.363" y2="63.479"/>
    <linearGradient id="color-0-6" href="#color-0" gradientUnits="userSpaceOnUse" x1="500.488" y1="0.002" x2="500.488" y2="63.479"/>
    <linearGradient id="color-0-7" href="#color-0" gradientUnits="userSpaceOnUse" x1="578.613" y1="0.002" x2="578.613" y2="63.479"/>
    <linearGradient id="color-0-4" href="#color-0" gradientUnits="userSpaceOnUse" x1="50" y1="2.318" x2="50" y2="97.682"/>
  </defs>
  <g id="svgGroup" stroke-linecap="round" fill-rule="evenodd" font-size="9pt" stroke="#000" stroke-width="0.25mm" fill="#000" style="stroke:#000;stroke-width:0.25mm;fill:#000" transform="matrix(0.8191990256309509, 0, 0, 0.8191990256309509, 104.53599548339844, 175.37001037597656)">
    <path d="M 39.063 63.479 L 24.414 63.479 L 24.414 14.651 L 0 14.651 L 0 0.002 L 63.477 0.002 L 63.477 14.651 L 39.063 14.651 L 39.063 63.479 Z" id="0" vector-effect="non-scaling-stroke" style="fill: url(&quot;#color-0-0&quot;); stroke: none;"/>
    <path d="M 92.773 63.479 L 78.125 63.479 L 78.125 0.002 L 126.953 0.002 Q 141.602 0.002 141.602 14.651 L 141.602 24.416 Q 141.602 39.065 126.953 39.065 L 122.07 39.065 L 141.602 53.713 L 141.602 63.479 L 133.203 63.479 L 97.656 39.065 L 92.773 39.065 L 92.773 63.479 Z M 92.773 14.651 L 92.773 24.416 L 122.07 24.416 Q 125.945 24.416 126.745 21.342 A 7.194 7.194 0 0 0 126.953 19.533 Q 126.953 15.659 123.879 14.859 A 7.194 7.194 0 0 0 122.07 14.651 L 92.773 14.651 Z" id="1" vector-effect="non-scaling-stroke" style="fill: url(&quot;#color-0-1&quot;); stroke: none;"/>
    <path d="M 205.078 39.065 L 205.078 0.002 L 209.961 0.002 L 219.727 0.002 L 219.727 48.83 Q 219.727 63.479 205.078 63.479 L 170.898 63.479 Q 156.25 63.479 156.25 48.83 L 156.25 0.002 L 166.016 0.002 L 170.898 0.002 L 170.898 43.947 Q 170.898 47.822 173.973 48.622 A 7.194 7.194 0 0 0 175.781 48.83 L 200.195 48.83 A 3.899 3.899 0 0 0 203.838 46.427 Q 205.078 43.986 205.078 39.065 Z" id="2" vector-effect="non-scaling-stroke" style="fill: url(&quot;#color-0-2&quot;); stroke: none;"/>
    <path d="M 297.852 43.947 L 297.852 48.83 Q 297.852 63.479 283.203 63.479 L 234.375 63.479 L 234.375 0.002 L 273.438 0.002 L 283.203 0.002 Q 297.852 0.002 297.852 14.651 L 297.852 24.416 A 9.848 9.848 0 0 1 297.402 27.521 Q 295.995 31.761 290.186 32.131 A 8.616 8.616 0 0 1 290.99 32.081 Q 297.423 31.989 297.825 42.499 A 37.917 37.917 0 0 1 297.852 43.947 Z M 249.023 14.651 L 249.023 24.416 L 278.32 24.416 Q 282.195 24.416 282.995 21.342 A 7.194 7.194 0 0 0 283.203 19.533 Q 283.203 15.659 280.129 14.859 A 7.194 7.194 0 0 0 278.32 14.651 L 249.023 14.651 Z M 249.023 39.065 L 249.023 48.83 L 278.32 48.83 Q 282.195 48.83 282.995 45.756 A 7.194 7.194 0 0 0 283.203 43.947 Q 283.203 40.073 280.129 39.273 A 7.194 7.194 0 0 0 278.32 39.065 L 249.023 39.065 Z" id="3" vector-effect="non-scaling-stroke" style="fill: url(&quot;#color-0-3&quot;); stroke: none;"/>
    <path d="M 429.688 63.479 L 415.039 63.479 L 415.039 14.651 L 390.625 14.651 L 390.625 0.002 L 454.102 0.002 L 454.102 14.651 L 429.688 14.651 L 429.688 63.479 Z" id="5" vector-effect="non-scaling-stroke" style="fill: url(&quot;#color-0-5&quot;); stroke: none;" transform="matrix(1, 0, 0, 1, -7.324204466298539, 1.7053025658242404e-13)"/>
    <path d="M 483.398 43.947 L 483.398 63.479 L 468.75 63.479 L 468.75 14.651 Q 468.75 0.002 483.398 0.002 L 517.578 0.002 Q 532.227 0.002 532.227 14.651 L 532.227 63.479 L 517.578 63.479 L 517.578 43.947 L 483.398 43.947 Z M 512.695 14.651 L 488.281 14.651 Q 484.407 14.651 483.607 17.725 A 7.194 7.194 0 0 0 483.398 19.533 L 483.398 29.299 L 517.578 29.299 L 517.578 19.533 Q 517.578 15.659 514.504 14.859 A 7.194 7.194 0 0 0 512.695 14.651 Z" id="6" vector-effect="non-scaling-stroke" style="fill: url(&quot;#color-0-6&quot;); stroke: none;" transform="matrix(1, 0, 0, 1, 3.6621046280417318, 3.694822225952521e-13)"/>
    <path d="M 610.352 48.83 L 610.352 63.479 L 546.875 63.479 L 546.875 48.83 L 571.289 48.83 L 571.289 14.651 L 546.875 14.651 L 546.875 0.002 L 610.352 0.002 L 610.352 14.651 L 585.938 14.651 L 585.938 48.83 L 610.352 48.83 Z" id="7" vector-effect="non-scaling-stroke" style="fill: url(&quot;#color-0-7&quot;); stroke: none;"/>
  </g>
  <g id="SvgjsSvg1026" transform="matrix(0.9999989867210388, 0, 0, 1, -8.869579315185547, 134.23300170898438)">
    <g id="SvgjsG1028" transform="matrix(0.56282, 0, 0, 0.56282, 414.035004, 28.776501)" opacity="1">
      <g id="SvgjsG1032" class="M3nR19Siy" transform="matrix(1.11791, 0, 0, 1.11788, -92.345398, 12.8754)" light-content="false" non-strokable="false" fill="url(&quot;#SvgjsLinearGradient_NYkFugoy&quot;)">
        <path d="M33.801 6c0-1.383.777-2.648 2.008-3.277a3.693 3.693 0 0 1 3.832.285 3.692 3.692 0 0 1-.96 6.492v5.18l3.999 2.3c.414.196.68.614.68 1.07v6.071h-2.418v-5.39l-4-2.34a1.184 1.184 0 0 1-.602-1V9.5A3.678 3.678 0 0 1 33.8 6zM73.5 28.898v42.18a2.429 2.429 0 0 1-2.422 2.422H28.922a2.429 2.429 0 0 1-2.422-2.422V28.922a2.429 2.429 0 0 1 2.422-2.422h42.156a2.429 2.429 0 0 1 2.422 2.422zm-4.59 3.36v.003c0-.66-.531-1.191-1.191-1.191H32.28c-.66 0-1.192.531-1.192 1.191v35.457c0 .66.532 1.192 1.192 1.192h35.438c.66 0 1.191-.532 1.191-1.192zm-20.102-15.9v7.739h2.38l.003-7.72a3.675 3.675 0 0 0 2.438-4.085c-.293-1.773-1.829-3.074-3.63-3.074s-3.335 1.3-3.628 3.074a3.675 3.675 0 0 0 2.437 4.086zm10.25 2.352l4-2.34a1.19 1.19 0 0 0 .602-1V9.5a3.69 3.69 0 1 0-2.39 0v5.179l-4 2.3a1.193 1.193 0 0 0-.68 1.07v6.071h2.39zm-25.59 14.758H66.53V66.53H33.468zm3.301 14.75a4.989 4.989 0 0 0 1.512 3.59 4.58 4.58 0 0 0-.672 2.363 4.5 4.5 0 0 0 4.25 4.488 4.228 4.228 0 0 0 1.191 2.559 4.974 4.974 0 0 0 3.18 1.46A4.697 4.697 0 0 0 50 61.173a4.697 4.697 0 0 0 3.769 1.508 4.985 4.985 0 0 0 3.23-1.461 4.25 4.25 0 0 0 1.192-2.559 4.5 4.5 0 0 0 4.25-4.488 4.618 4.618 0 0 0-.672-2.363 4.994 4.994 0 0 0 1.406-4.672 5.005 5.005 0 0 0-3.246-3.649 5.262 5.262 0 0 0-1.39-4.43 5.943 5.943 0 0 0-3.79-1.73A5.515 5.515 0 0 0 50 39.38a5.507 5.507 0 0 0-4.699-2.05 5.934 5.934 0 0 0-3.789 1.73 5.25 5.25 0 0 0-1.39 4.43 5 5 0 0 0-3.352 4.73zm5 2.629v.004a1.19 1.19 0 1 1 0 2.379 5.03 5.03 0 0 1-1.441-.23 2.178 2.178 0 0 0-.329 1.171 2.09 2.09 0 0 0 .641 1.52c.41.398.969.609 1.54.59.25-.543.612-1.02 1.07-1.403a1.197 1.197 0 0 1 1.758.066 1.196 1.196 0 0 1-.227 1.747 1.726 1.726 0 0 0-.371.437 2.309 2.309 0 0 0 .34 2.442 2.59 2.59 0 0 0 1.64.73c.602.04 1.2-.16 1.66-.55a2.298 2.298 0 0 0 .758-1.802V43a3.095 3.095 0 0 0-3.348-3.25 3.54 3.54 0 0 0-2.242 1A2.86 2.86 0 0 0 42.46 43c0 1.184.891 2.18 2.07 2.31a1.191 1.191 0 0 1 .911 2.066 1.18 1.18 0 0 1-.91.304 4.495 4.495 0 0 1-3-1.199 5.266 5.266 0 0 1-.672-.742 2.66 2.66 0 0 0-1.13.75 2.576 2.576 0 0 0-.671 1.75 2.634 2.634 0 0 0 2.633 2.633zm45.328-4.531l.004.004a3.68 3.68 0 0 0-3.492 2.488h-7.73v2.379h7.738l.003.004a3.68 3.68 0 1 0 3.489-4.871zm-33.5 14l.004.004a2.569 2.569 0 0 0 1.637-.73c.57-.684.699-1.63.34-2.442a1.794 1.794 0 0 0-.368-.438 1.198 1.198 0 0 1-.5-.824 1.184 1.184 0 0 1 .274-.922c.215-.254.527-.406.863-.418.332-.015.656.113.89.352.458.383.825.86 1.07 1.402a2.12 2.12 0 0 0 1.864-3.3c-.473.14-.96.21-1.453.21a1.19 1.19 0 1 1 0-2.383 2.63 2.63 0 0 0 2.633-2.629 2.576 2.576 0 0 0-.672-1.75 2.66 2.66 0 0 0-1.129-.75c-.2.27-.426.516-.672.743a4.502 4.502 0 0 1-3 1.199 1.196 1.196 0 0 1-.91-.305 1.2 1.2 0 0 1 0-1.762c.246-.222.578-.335.91-.304a2.328 2.328 0 0 0 2.16-2.27 2.87 2.87 0 0 0-.757-2.27 3.54 3.54 0 0 0-2.243-1 3.086 3.086 0 0 0-2.418.872A3.078 3.078 0 0 0 51.19 43v15c-.027.684.25 1.344.759 1.801.468.371 1.062.55 1.66.5zm30-23.41l-2.34 4-5.379.004v2.39H82c.426-.023.809-.27 1-.652l2.301-4h5.2a3.69 3.69 0 0 0 7.18-1.195 3.69 3.69 0 0 0-7.18-1.191h-5.86a1.18 1.18 0 0 0-1.031.628zm-7.73-3.809v2.379h3.851v.004c.457 0 .875-.258 1.07-.672l2.532-4.379c.238.043.476.067.718.07a3.68 3.68 0 1 0-2.961-5.875 3.677 3.677 0 0 0 .184 4.614l-2.219 3.86zM65.21 19.2c-.414.2-.671.613-.671 1.07v3.852h2.379l.003-3.121 3.86-2.219a3.682 3.682 0 0 0 3.945.57 3.689 3.689 0 0 0 2.164-3.351 3.689 3.689 0 0 0-3.687-3.496A3.688 3.688 0 0 0 69.519 16c.004.242.027.484.07.719zM12.89 46.321a3.683 3.683 0 0 0-3.269 2 3.697 3.697 0 0 0 .285 3.824 3.682 3.682 0 0 0 6.473-.953h7.738l.004-2.383h-7.742a3.676 3.676 0 0 0-3.489-2.488zm50.82 44.18v-5.86a1.18 1.18 0 0 0-.601-1l-4-2.34V75.88H56.67v6.121c.028.434.286.817.68 1l4 2.3v5.2a3.69 3.69 0 0 0 1.195 7.18 3.69 3.69 0 0 0 1.191-7.18zm9.5-10.14a3.718 3.718 0 0 0-2.43.91l-3.859-2.22V75.88H64.54v3.851c0 .457.257.871.671 1.07l4.38 2.532v-.004a3.694 3.694 0 0 0 2.207 4.133 3.688 3.688 0 1 0 4.82-4.824 3.685 3.685 0 0 0-3.407-2.278zm-32.27.91l-4 2.34a1.205 1.205 0 0 0-.601 1v5.89a3.69 3.69 0 1 0 2.39 0v-5.18l4-2.3c.368-.208.594-.598.598-1.02V75.88H40.94zm10.25 2.35V75.88h-2.382v7.742a3.675 3.675 0 0 0-2.438 4.086c.293 1.773 1.828 3.074 3.63 3.074s3.335-1.3 3.628-3.074a3.675 3.675 0 0 0-2.438-4.086zM94 58.83a3.685 3.685 0 0 0-3.481 2.492h-5.2l-2.3-4a1.179 1.179 0 0 0-1.02-.648h-6.12v2.39h5.39l2.34 4v-.004c.207.36.586.586 1 .602h5.89a3.677 3.677 0 0 0 2.93 2.484 3.676 3.676 0 0 0 3.844-5.304 3.683 3.683 0 0 0-3.274-2.012zm-9.95 10.69a4.484 4.484 0 0 0-.722.071l-2.528-4.38a1.183 1.183 0 0 0-1.07-.672h-3.852v2.38h3.172l2.22 3.859v.004a3.69 3.69 0 0 0 2.78 6.109 3.689 3.689 0 0 0 3.497-3.688 3.688 3.688 0 0 0-3.497-3.683zM34.788 80.802c.414-.2.672-.613.672-1.07V75.88h-2.383v3.172l-3.859 2.219a3.69 3.69 0 0 0-6.11 2.78 3.689 3.689 0 0 0 3.688 3.497 3.688 3.688 0 0 0 3.684-3.496 4.484 4.484 0 0 0-.07-.723zM6 41.17a3.685 3.685 0 0 0 3.5-2.491h5.18l2.3 4c.196.414.614.68 1.071.68h6.07V40.94h-5.39l-2.34-4a1.184 1.184 0 0 0-1-.601H9.5a3.677 3.677 0 0 0-2.93-2.485 3.676 3.676 0 0 0-3.844 5.305 3.683 3.683 0 0 0 3.273 2.012zm20.79-21.53a3.718 3.718 0 0 0 2.429-.91l3.86 2.27v3.171h2.378l.004-3.902c0-.457-.258-.871-.672-1.07l-4.379-2.532v.004a3.694 3.694 0 0 0-2.207-4.133 3.688 3.688 0 1 0-4.82 4.824 3.685 3.685 0 0 0 3.406 2.278zM16 30.48c.242-.004.485-.027.719-.07l2.531 4.378c.196.415.614.672 1.07.672h3.852v-2.38H21l-2.219-3.86a3.682 3.682 0 0 0 .57-3.945A3.689 3.689 0 0 0 16 23.11a3.689 3.689 0 0 0-3.497 3.687A3.688 3.688 0 0 0 16 30.481zm.442 32.629l2.34-4h5.39v-2.438H18.05c-.457 0-.875.266-1.07.68l-2.301 4h-5.18a3.69 3.69 0 0 0-7.18 1.195 3.69 3.69 0 0 0 7.18 1.191h5.86a1.18 1.18 0 0 0 1.03-.628zm7.73 3.808V64.54H20.27c-.457 0-.871.257-1.07.671l-2.532 4.38h.004a4.484 4.484 0 0 0-.722-.071 3.681 3.681 0 0 0-1.512 7.031 3.678 3.678 0 0 0 4.293-5.77L21 66.923z" style="fill: url(&quot;#color-0-4&quot;);"/>
      </g>
    </g>
  </g>
</svg>